<svg version="1.1" id="Layer_1" xmlns="http://www.w3.org/2000/svg" xmlns:xlink="http://www.w3.org/1999/xlink" x="0px" y="0px"
	 width="100%" viewBox="0 0 512 512" enable-background="new 0 0 512 512" xml:space="preserve" >
<path fill="#FFFFFF" opacity="1.000000" stroke="none" 
	d="
M1.382534,246.040741 
	C1.000000,165.876587 1.023743,85.753136 0.920390,5.629848 
	C0.915866,2.123013 1.325092,0.884737 5.365487,0.887889 
	C173.108185,1.018751 340.850983,1.017571 508.593689,0.892694 
	C512.547363,0.889751 513.136536,2.005174 513.090515,5.590077 
	C512.883057,21.745337 513.000000,37.904762 513.000000,54.531342 
	C510.325806,54.782745 510.807953,52.428928 510.402374,50.879265 
	C503.275482,23.650448 478.422333,5.167901 450.364960,6.313399 
	C419.429260,7.576409 394.787476,33.781048 394.136505,64.769485 
	C393.644165,88.207542 409.703583,112.359314 432.447083,120.920547 
	C462.716217,132.314621 498.409363,115.881538 508.811707,85.141884 
	C509.858368,82.048935 509.896027,78.542152 512.617432,75.960403 
	C513.000000,196.687561 513.000000,317.375122 513.000000,438.531342 
	C509.994537,438.465546 510.699799,435.746063 510.169586,433.906647 
	C504.203064,413.207184 491.287170,398.838837 470.765472,392.223724 
	C436.801910,381.275665 400.919342,402.846863 394.961029,437.981049 
	C388.817963,474.204590 413.329590,502.123871 443.942688,506.824280 
	C474.218719,511.472992 502.747711,492.581665 510.196289,462.862640 
	C510.629242,461.135284 510.562134,459.156433 512.616943,457.960876 
	C513.000000,474.988251 512.886963,491.977875 513.096619,508.963531 
	C513.137878,512.309937 512.539795,513.103333 509.040710,513.099792 
	C390.289703,512.979675 271.538544,513.000000 152.787399,513.000000 
	C103.654747,513.000000 54.521873,512.939575 5.389833,513.113098 
	C1.399776,513.127197 0.880778,511.947357 0.912605,508.394867 
	C1.093142,488.243713 1.000000,468.090088 1.000000,447.468658 
	C4.138361,447.683319 3.140181,450.301514 3.260766,452.201599 
	C5.281198,484.037903 32.108639,508.566193 64.035637,507.691895 
	C94.031723,506.870483 118.129639,483.807129 120.834274,454.077118 
	C123.884018,420.553528 99.607338,390.671265 63.684166,389.464264 
	C34.298824,388.476868 10.316531,409.283569 4.744107,435.381226 
	C4.169187,438.073761 4.326700,441.130585 1.383667,443.044922 
	C1.000000,384.979095 1.000000,326.958221 1.000000,268.468658 
	C3.794372,268.395844 3.235101,270.914825 3.751209,272.601868 
	C10.734475,295.429077 25.605244,310.174866 49.035019,315.028259 
	C87.613274,323.019562 119.669121,292.800110 119.869164,257.737518 
	C120.115730,214.523178 75.094131,184.644852 34.215340,204.492828 
	C18.940422,211.909302 9.089040,224.427170 4.152706,240.734909 
	C3.586477,242.605469 3.541862,244.739624 1.382534,246.040741 
z"/>
<path fill="#5f6368" opacity="1.000000" stroke="none" 
	d="
M1.000000,443.399994 
	C3.791027,438.917267 3.356711,433.902893 4.940184,429.437378 
	C12.672575,407.631378 28.122963,394.017822 50.292290,389.252686 
	C70.340759,384.943420 88.845863,390.548645 103.795959,404.578613 
	C114.785873,414.892090 121.005417,427.982330 122.141624,443.552704 
	C123.555435,462.927490 117.542877,479.281036 103.769890,492.539276 
	C94.775352,501.197632 83.667107,506.093994 71.136497,508.100220 
	C54.469818,510.768677 39.607029,506.856750 26.289459,496.971313 
	C13.533401,487.502716 5.668602,474.889801 2.862736,459.057281 
	C2.164025,455.114746 2.351443,451.208801 1.403234,447.159546 
	C1.000000,445.933319 1.000000,444.866669 1.000000,443.399994 
z"/>
<path fill="#5f6368" opacity="1.000000" stroke="none" 
	d="
M1.000000,246.468567 
	C3.741777,238.952850 5.680282,231.681702 9.861931,225.108673 
	C19.681715,209.673172 33.389183,200.998184 51.331116,197.882156 
	C67.838829,195.015198 82.700218,198.910934 95.961678,208.156006 
	C108.958344,217.216476 117.231628,229.895676 120.033318,245.856415 
	C123.109909,263.383240 119.852280,279.384888 109.017639,293.622650 
	C98.482971,307.466217 84.707390,315.328766 67.176239,317.113403 
	C51.655910,318.693298 37.734905,315.253723 25.342148,305.989441 
	C12.660729,296.509430 4.049902,284.321991 1.382161,268.132202 
	C1.000000,260.979065 1.000000,253.958099 1.000000,246.468567 
z"/>
<path fill="#5f6368" opacity="1.000000" stroke="none" 
	d="
M513.000000,457.531738 
	C510.864868,463.248108 510.127960,468.895508 507.565826,474.094849 
	C499.160278,491.152405 486.052216,502.182281 467.658020,507.014526 
	C451.228302,511.330627 435.773773,508.698792 421.479553,499.969849 
	C406.764435,490.983856 397.266113,478.041595 393.989075,460.851929 
	C391.642273,448.541595 392.091095,436.225342 397.191742,424.875000 
	C405.191589,407.073120 418.779480,394.976593 437.996521,390.034912 
	C456.721039,385.219879 474.243164,388.707886 489.401306,400.329895 
	C501.842041,409.868347 510.296997,422.557648 512.615234,438.864594 
	C513.000000,445.021149 513.000000,451.042297 513.000000,457.531738 
z"/>
<path fill="#5f6368" opacity="1.000000" stroke="none" 
	d="
M513.000000,75.531464 
	C510.795959,77.546051 511.822479,80.154274 511.194427,82.189980 
	C504.074432,105.268227 488.343903,119.488472 465.356293,124.586304 
	C445.379486,129.016464 427.117767,123.778412 411.908173,109.432045 
	C397.084930,95.450111 391.002289,78.024635 393.144775,58.161049 
	C395.967621,31.989706 417.501953,9.495725 444.151886,5.822636 
	C460.362579,3.588366 474.851288,7.115555 487.860809,16.129028 
	C501.231140,25.392511 509.927887,38.190639 512.615845,54.865395 
	C513.000000,61.687645 513.000000,68.375290 513.000000,75.531464 
z"/>
<path fill="#5f6368" opacity="1.000000" stroke="none" 
	d="
M2.000000,66.923294 
	C2.413339,42.174358 12.958692,23.734798 34.296398,12.076800 
	C45.453506,5.981041 57.419361,4.036299 70.418839,5.781196 
	C90.910660,8.531776 105.988899,19.031248 115.552353,36.520817 
	C124.724159,53.294121 125.706642,71.353546 117.944130,89.335251 
	C112.911919,100.992256 105.201698,110.535645 94.205589,116.908302 
	C76.890656,126.942963 58.703907,129.065109 39.831470,121.380058 
	C22.111692,114.164360 10.392967,101.546417 4.899806,83.081795 
	C3.361651,77.911461 2.065352,72.794785 2.000000,66.923294 
z"/>
<path fill="#5f6368" opacity="1.000000" stroke="none" 
	d="
M396.698853,282.252075 
	C385.201294,257.186584 392.101837,228.540344 412.343994,211.231232 
	C435.982941,191.017532 471.830841,192.471100 493.685303,214.071503 
	C507.217468,227.446320 513.357361,243.642883 511.818848,262.153381 
	C509.680237,287.884491 493.192413,309.093231 466.057190,315.888336 
	C448.624969,320.253632 432.097961,317.017059 417.079010,306.989380 
	C407.935944,300.884857 401.148163,292.768066 396.698853,282.252075 
z"/>
<path fill="#5f6368" opacity="1.000000" stroke="none" 
	d="
M277.554901,201.208252 
	C294.933716,209.295074 306.961517,221.723694 312.443512,239.922272 
	C322.367249,272.865936 303.292084,307.961609 268.530670,315.936859 
	C248.908829,320.438599 231.054489,316.372345 215.592621,303.099915 
	C203.580719,292.788940 196.537170,280.032349 194.898697,264.029480 
	C192.454132,240.153305 201.206985,221.117706 220.250244,207.609177 
	C236.883362,195.810272 255.757660,193.593933 275.292084,200.698807 
	C275.888275,200.915634 276.560822,200.922379 277.554901,201.208252 
z"/>
<path fill="#5f6368" opacity="1.000000" stroke="none" 
	d="
M286.648987,13.241873 
	C304.480377,24.327284 314.331940,39.718216 316.116913,60.554070 
	C317.696259,78.989761 311.831268,94.706573 299.489319,107.710678 
	C290.096313,117.607620 278.138580,123.333298 264.164795,125.134026 
	C242.061356,127.982391 224.259964,120.323364 209.860428,104.178879 
	C202.815292,96.279976 198.721771,86.700485 196.924850,76.074448 
	C194.005402,58.810444 197.520203,43.182743 208.014099,29.253912 
	C217.689468,16.411533 230.428329,8.643089 246.482178,5.891049 
	C260.785858,3.439034 273.759399,6.697867 286.648987,13.241873 
z"/>
<path fill="#5f6368" opacity="1.000000" stroke="none" 
	d="
M277.792633,504.987366 
	C253.395172,513.588806 231.664902,508.717621 213.610931,491.635895 
	C195.342957,474.351746 190.595596,447.303528 201.035675,423.944000 
	C209.407761,405.211609 224.007080,393.227142 243.844345,389.313049 
	C265.518280,385.036560 284.553986,391.222717 300.233673,407.564514 
	C313.756195,421.658051 317.729645,438.582306 315.806854,457.070984 
	C314.612396,468.556000 309.693848,478.833252 301.892609,487.822998 
	C295.234314,495.495758 287.112305,500.665161 277.792633,504.987366 
z"/>
</svg>