<svg version="1.1" id="Layer_1" xmlns="http://www.w3.org/2000/svg" xmlns:xlink="http://www.w3.org/1999/xlink" x="0px" y="0px"
	 width="100%" viewBox="0 0 512 512" enable-background="new 0 0 512 512" xml:space="preserve">
<path fill="#FFFFFF" opacity="1.000000" stroke="none" 
	d="
M0.999998,246.000000 
	C1.000000,164.377396 1.000000,82.754784 1.000000,1.066087 
	C171.666656,1.066087 342.333313,1.066087 513.000000,1.066087 
	C513.000000,18.748457 513.000000,36.405571 512.615845,54.396736 
	C509.927887,38.190639 501.231140,25.392511 487.860809,16.129028 
	C474.851288,7.115555 460.362579,3.588366 444.151886,5.822636 
	C417.501953,9.495725 395.967621,31.989706 393.144775,58.161049 
	C391.002289,78.024635 397.084930,95.450111 411.908173,109.432045 
	C427.117767,123.778412 445.379486,129.016464 465.356293,124.586304 
	C488.343903,119.488472 504.173309,105.298782 511.022827,82.136940 
	C511.632141,80.076591 512.338623,78.044960 513.000000,76.000000 
	C513.000000,196.687561 513.000000,317.375122 512.615234,438.395935 
	C510.296997,422.557648 501.842041,409.868347 489.401306,400.329895 
	C474.243164,388.707886 456.721039,385.219879 437.996521,390.034912 
	C418.779480,394.976593 405.191589,407.073120 397.191742,424.875000 
	C392.091095,436.225342 391.642273,448.541595 393.989075,460.851929 
	C397.266113,478.041595 406.764435,490.983856 421.479553,499.969849 
	C435.773773,508.698792 451.228302,511.330627 467.658020,507.014526 
	C486.052216,502.182281 499.457977,491.294800 507.385071,474.008423 
	C509.732147,468.890320 511.154114,463.347961 513.000000,458.000000 
	C513.000000,476.320648 513.000000,494.641327 513.000000,512.946289 
	C342.333313,512.946289 171.666656,512.946289 1.000000,512.946289 
	C1.000000,491.240784 1.000000,469.589050 1.403234,447.628204 
	C2.203736,451.223816 2.439060,455.153076 3.026599,459.028961 
	C5.436986,474.929840 13.533401,487.502716 26.289459,496.971313 
	C39.607029,506.856750 54.469818,510.768677 71.136497,508.100220 
	C83.667107,506.093994 94.775352,501.197632 103.769890,492.539276 
	C117.542877,479.281036 123.555435,462.927490 122.141624,443.552704 
	C121.005417,427.982330 114.785873,414.892090 103.795959,404.578613 
	C88.845863,390.548645 70.340759,384.943420 50.292290,389.252686 
	C28.122963,394.017822 12.561930,407.592499 5.031919,429.469604 
	C3.501610,433.915619 2.334526,438.486603 1.000003,443.000000 
	C1.000000,384.979095 1.000000,326.958221 1.382161,268.600891 
	C4.049902,284.321991 12.660729,296.509430 25.342148,305.989441 
	C37.734905,315.253723 51.655910,318.693298 67.176239,317.113403 
	C84.707390,315.328766 98.482971,307.466217 109.017639,293.622650 
	C119.852280,279.384888 123.109909,263.383240 120.033318,245.856415 
	C117.231628,229.895676 108.958344,217.216476 95.961678,208.156006 
	C82.700218,198.910934 67.838829,195.015198 51.331116,197.882156 
	C33.389183,200.998184 19.176327,209.367935 10.102968,225.254150 
	C6.378467,231.775238 3.994020,239.061707 0.999998,246.000000 
M2.000000,67.398460 
	C2.992122,72.618645 3.628353,77.937279 5.040168,83.041374 
	C10.176040,101.608910 22.111692,114.164360 39.831470,121.380058 
	C58.703907,129.065109 76.890656,126.942963 94.205589,116.908302 
	C105.201698,110.535645 112.911919,100.992256 117.944130,89.335251 
	C125.706642,71.353546 124.724159,53.294121 115.552353,36.520817 
	C105.988899,19.031248 90.910660,8.531776 70.418839,5.781196 
	C57.419361,4.036299 45.453506,5.981041 34.296398,12.076800 
	C12.958692,23.734798 2.413339,42.174358 2.000000,67.398460 
M396.957214,282.549835 
	C401.148163,292.768066 407.935944,300.884857 417.079010,306.989380 
	C432.097961,317.017059 448.624969,320.253632 466.057190,315.888336 
	C493.192413,309.093231 509.680237,287.884491 511.818848,262.153381 
	C513.357361,243.642883 507.217468,227.446320 493.685303,214.071503 
	C471.830841,192.471100 435.982941,191.017532 412.343994,211.231232 
	C392.101837,228.540344 385.201294,257.186584 396.957214,282.549835 
M277.197784,201.027069 
	C276.560822,200.922379 275.888275,200.915634 275.292084,200.698807 
	C255.757660,193.593933 236.883362,195.810272 220.250244,207.609177 
	C201.206985,221.117706 192.454132,240.153305 194.898697,264.029480 
	C196.537170,280.032349 203.580719,292.788940 215.592621,303.099915 
	C231.054489,316.372345 248.908829,320.438599 268.530670,315.936859 
	C303.292084,307.961609 322.367249,272.865936 312.443512,239.922272 
	C306.961517,221.723694 294.933716,209.295074 277.197784,201.027069 
M286.332733,13.029832 
	C273.759399,6.697867 260.785858,3.439034 246.482178,5.891049 
	C230.428329,8.643089 217.689468,16.411533 208.014099,29.253912 
	C197.520203,43.182743 194.005402,58.810444 196.924850,76.074448 
	C198.721771,86.700485 202.815292,96.279976 209.860428,104.178879 
	C224.259964,120.323364 242.061356,127.982391 264.164795,125.134026 
	C278.138580,123.333298 290.096313,117.607620 299.489319,107.710678 
	C311.831268,94.706573 317.696259,78.989761 316.116913,60.554070 
	C314.331940,39.718216 304.480377,24.327284 286.332733,13.029832 
M278.197327,504.973053 
	C287.112305,500.665161 295.234314,495.495758 301.892609,487.822998 
	C309.693848,478.833252 314.612396,468.556000 315.806854,457.070984 
	C317.729645,438.582306 313.756195,421.658051 300.233673,407.564514 
	C284.553986,391.222717 265.518280,385.036560 243.844345,389.313049 
	C224.007080,393.227142 209.407761,405.211609 201.035675,423.944000 
	C190.595596,447.303528 195.342957,474.351746 213.610931,491.635895 
	C231.664902,508.717621 253.395172,513.588806 278.197327,504.973053 
z"/>
<path fill="#000000" opacity="1.000000" stroke="none" 
	d="
M1.000003,443.399994 
	C2.334526,438.486603 3.501610,433.915619 5.031919,429.469604 
	C12.561930,407.592499 28.122963,394.017822 50.292290,389.252686 
	C70.340759,384.943420 88.845863,390.548645 103.795959,404.578613 
	C114.785873,414.892090 121.005417,427.982330 122.141624,443.552704 
	C123.555435,462.927490 117.542877,479.281036 103.769890,492.539276 
	C94.775352,501.197632 83.667107,506.093994 71.136497,508.100220 
	C54.469818,510.768677 39.607029,506.856750 26.289459,496.971313 
	C13.533401,487.502716 5.436986,474.929840 3.026599,459.028961 
	C2.439060,455.153076 2.203736,451.223816 1.403234,447.159546 
	C1.000000,445.933319 1.000000,444.866669 1.000003,443.399994 
z"/>
<path fill="#000000" opacity="1.000000" stroke="none" 
	d="
M0.999998,246.468567 
	C3.994020,239.061707 6.378467,231.775238 10.102968,225.254150 
	C19.176327,209.367935 33.389183,200.998184 51.331116,197.882156 
	C67.838829,195.015198 82.700218,198.910934 95.961678,208.156006 
	C108.958344,217.216476 117.231628,229.895676 120.033318,245.856415 
	C123.109909,263.383240 119.852280,279.384888 109.017639,293.622650 
	C98.482971,307.466217 84.707390,315.328766 67.176239,317.113403 
	C51.655910,318.693298 37.734905,315.253723 25.342148,305.989441 
	C12.660729,296.509430 4.049902,284.321991 1.382161,268.132202 
	C1.000000,260.979065 1.000000,253.958099 0.999998,246.468567 
z"/>
<path fill="#000000" opacity="1.000000" stroke="none" 
	d="
M513.000000,457.531738 
	C511.154114,463.347961 509.732147,468.890320 507.385071,474.008423 
	C499.457977,491.294800 486.052216,502.182281 467.658020,507.014526 
	C451.228302,511.330627 435.773773,508.698792 421.479553,499.969849 
	C406.764435,490.983856 397.266113,478.041595 393.989075,460.851929 
	C391.642273,448.541595 392.091095,436.225342 397.191742,424.875000 
	C405.191589,407.073120 418.779480,394.976593 437.996521,390.034912 
	C456.721039,385.219879 474.243164,388.707886 489.401306,400.329895 
	C501.842041,409.868347 510.296997,422.557648 512.615234,438.864594 
	C513.000000,445.021149 513.000000,451.042297 513.000000,457.531738 
z"/>
<path fill="#000000" opacity="1.000000" stroke="none" 
	d="
M513.000000,75.531464 
	C512.338623,78.044960 511.632141,80.076591 511.022827,82.136940 
	C504.173309,105.298782 488.343903,119.488472 465.356293,124.586304 
	C445.379486,129.016464 427.117767,123.778412 411.908173,109.432045 
	C397.084930,95.450111 391.002289,78.024635 393.144775,58.161049 
	C395.967621,31.989706 417.501953,9.495725 444.151886,5.822636 
	C460.362579,3.588366 474.851288,7.115555 487.860809,16.129028 
	C501.231140,25.392511 509.927887,38.190639 512.615845,54.865395 
	C513.000000,61.687645 513.000000,68.375290 513.000000,75.531464 
z"/>
<path fill="#000000" opacity="1.000000" stroke="none" 
	d="
M2.000000,66.923294 
	C2.413339,42.174358 12.958692,23.734798 34.296398,12.076800 
	C45.453506,5.981041 57.419361,4.036299 70.418839,5.781196 
	C90.910660,8.531776 105.988899,19.031248 115.552353,36.520817 
	C124.724159,53.294121 125.706642,71.353546 117.944130,89.335251 
	C112.911919,100.992256 105.201698,110.535645 94.205589,116.908302 
	C76.890656,126.942963 58.703907,129.065109 39.831470,121.380058 
	C22.111692,114.164360 10.176040,101.608910 5.040168,83.041374 
	C3.628353,77.937279 2.992122,72.618645 2.000000,66.923294 
z"/>
<path fill="#000000" opacity="1.000000" stroke="none" 
	d="
M396.698853,282.252075 
	C385.201294,257.186584 392.101837,228.540344 412.343994,211.231232 
	C435.982941,191.017532 471.830841,192.471100 493.685303,214.071503 
	C507.217468,227.446320 513.357361,243.642883 511.818848,262.153381 
	C509.680237,287.884491 493.192413,309.093231 466.057190,315.888336 
	C448.624969,320.253632 432.097961,317.017059 417.079010,306.989380 
	C407.935944,300.884857 401.148163,292.768066 396.698853,282.252075 
z"/>
<path fill="#000000" opacity="1.000000" stroke="none" 
	d="
M277.554901,201.208252 
	C294.933716,209.295074 306.961517,221.723694 312.443512,239.922272 
	C322.367249,272.865936 303.292084,307.961609 268.530670,315.936859 
	C248.908829,320.438599 231.054489,316.372345 215.592621,303.099915 
	C203.580719,292.788940 196.537170,280.032349 194.898697,264.029480 
	C192.454132,240.153305 201.206985,221.117706 220.250244,207.609177 
	C236.883362,195.810272 255.757660,193.593933 275.292084,200.698807 
	C275.888275,200.915634 276.560822,200.922379 277.554901,201.208252 
z"/>
<path fill="#000000" opacity="1.000000" stroke="none" 
	d="
M286.648987,13.241873 
	C304.480377,24.327284 314.331940,39.718216 316.116913,60.554070 
	C317.696259,78.989761 311.831268,94.706573 299.489319,107.710678 
	C290.096313,117.607620 278.138580,123.333298 264.164795,125.134026 
	C242.061356,127.982391 224.259964,120.323364 209.860428,104.178879 
	C202.815292,96.279976 198.721771,86.700485 196.924850,76.074448 
	C194.005402,58.810444 197.520203,43.182743 208.014099,29.253912 
	C217.689468,16.411533 230.428329,8.643089 246.482178,5.891049 
	C260.785858,3.439034 273.759399,6.697867 286.648987,13.241873 
z"/>
<path fill="#000000" opacity="1.000000" stroke="none" 
	d="
M277.792633,504.987366 
	C253.395172,513.588806 231.664902,508.717621 213.610931,491.635895 
	C195.342957,474.351746 190.595596,447.303528 201.035675,423.944000 
	C209.407761,405.211609 224.007080,393.227142 243.844345,389.313049 
	C265.518280,385.036560 284.553986,391.222717 300.233673,407.564514 
	C313.756195,421.658051 317.729645,438.582306 315.806854,457.070984 
	C314.612396,468.556000 309.693848,478.833252 301.892609,487.822998 
	C295.234314,495.495758 287.112305,500.665161 277.792633,504.987366 
z"/>
</svg>